<?xml version="1.0" encoding="UTF-8"?>
<svg id="a" data-name="Layer 1" xmlns="http://www.w3.org/2000/svg" viewBox="0 0 16 27">
  <defs>
    <style>
      .b {
        fill: #5f2627;
      }
    </style>
  </defs>
  <path class="b" d="M16,4.85c0-2.22-1.63-3.89-3.76-3.89-.38,0-.79.05-1.14.16-.87-.71-1.96-1.12-3.1-1.12s-2.23.38-3.1,1.12c-.38-.11-.76-.16-1.14-.16C1.61.96,0,2.63,0,4.85c0,1.32.57,2.19,1.71,2.6l-.14,2.33v.03c0,1.92.35,3.81,1.06,5.62l.49,1.26c.35.93.57,2.74.57,3.89v5.07c0,.74.6,1.34,1.33,1.34h5.99c.73,0,1.33-.6,1.33-1.34v-5.07c0-1.15.22-2.96.57-3.89l.49-1.26c.71-1.81,1.06-3.7,1.06-5.62l-.14-2.38c1.09-.38,1.66-1.26,1.66-2.58ZM7.43,8.72H2.67l.16-2.69h3.46c.63,0,1.12.52,1.12,1.12v1.56h.03ZM11.21,25.66c0,.14-.11.25-.24.25h-5.99c-.14,0-.24-.11-.24-.25v-1.54h6.5v1.54h-.03ZM11.24,8.72v-1.56c0-.63.52-1.12,1.12-1.12.41,0,.76.33.79.74l.11,1.95h-2.01ZM14.18,6.3c-.22-.79-.95-1.37-1.8-1.37-1.22,0-2.2.99-2.2,2.22v4.88c0,.47-.33.85-.73.88-.24.03-.46-.05-.63-.22-.16-.16-.27-.38-.27-.6v-4.93c0-1.23-.98-2.22-2.2-2.22H1.85l-.08,1.34c-.49-.27-.71-.71-.71-1.43,0-1.62,1.12-2.8,2.67-2.8.38,0,.73.05,1.09.19l.33.11.24-.25c.71-.66,1.63-1.04,2.61-1.04s1.9.36,2.61,1.04l.24.25.33-.11c.35-.14.71-.19,1.09-.19,1.55,0,2.67,1.18,2.67,2.8-.03.74-.24,1.18-.76,1.45Z"/>
</svg>