<svg xmlns="http://www.w3.org/2000/svg" xmlns:xlink="http://www.w3.org/1999/xlink" version="1.1" width="288" height="288" viewBox="0 0 288 288"><g transform="matrix(0.140625 0 0 0.140625 0 0)"><path xmlns="http://www.w3.org/2000/svg" fill="#FFF" d="M 0 0 L 2048 0 L 2048 2048 L 0 2048 L 0 0 z" class="svgShape colorffffff-0 selectable"/><path xmlns="http://www.w3.org/2000/svg" d="M 1016.64 469.204 C 1030.55 467.503 1044.26 470.018 1054.6 480.2 C 1071.43 496.781 1068.25 521.813 1068.17 543.51 C 1086.28 541.446 1104.14 538.471 1122.35 536.505 C 1201.25 527.984 1277.84 535.328 1352.62 562.498 C 1464.54 603.162 1551.53 690.254 1616.25 787.888 C 1622.65 797.536 1624.16 812.42 1620.58 823.156 C 1614.32 844.483 1591.61 852.59 1573.41 862.12 C 1581.67 871.445 1590.55 880.191 1598.78 889.69 C 1696.29 1002.26 1658.32 1140.77 1595.74 1258.58 C 1663.48 1267.84 1697.8 1312.06 1705.63 1377.69 C 1719.4 1493.16 1656.29 1575.3 1547.19 1606.75 C 1518.47 1615.03 1495.72 1618.83 1465.62 1622.15 C 1364.17 1792.89 1203.94 1881.84 1005.75 1877.98 C 970.242 1876.8 934.94 1872.07 900.377 1863.84 C 759.434 1830.14 657.066 1743.78 582.304 1622.25 C 473.761 1613.28 357.022 1560.37 343.048 1439.39 C 337.811 1394.06 341.518 1339.89 370.954 1302.46 C 394.251 1272.83 422.545 1262.34 458.959 1258.16 C 446.334 1207.2 445.349 1160.19 446.318 1108.25 C 408.261 1105.46 360.987 1090.18 363.259 1042.63 C 367.353 956.967 417.514 877.948 477.354 819.242 C 464.092 813.045 448.634 806.943 437.992 796.859 C 425.738 785.247 423.052 760.073 432.306 746.04 C 448.004 722.237 470.935 698.595 492.045 679.522 C 547.781 629.165 619.877 597.469 694.999 592.607 C 716.325 591.184 734.847 592.096 756.195 593.344 C 835.01 529.559 916.978 490.557 1016.64 469.204 z" fill="#000000" class="svgShape color000000-1 selectable"/><path xmlns="http://www.w3.org/2000/svg" fill="#FFF" d="M 1018.6 479.203 C 1024.7 478.651 1030.01 478.559 1035.86 480.657 C 1072.44 493.78 1050.24 536.118 1060.02 553.184 C 1061.44 555.668 1112.8 547.826 1119.71 547.079 C 1173.94 541.221 1228.15 542.156 1281.74 552.908 C 1404.98 577.634 1503.78 653.076 1578.34 752.095 C 1586.87 763.434 1595.82 774.771 1603.62 786.625 C 1609.98 796.299 1614.09 806.319 1611.39 818.061 C 1606.22 840.559 1575.34 847.868 1558.19 858.902 C 1557.82 859.135 1557.47 859.376 1557.11 859.613 C 1561.79 866.336 1573.91 877.397 1580.06 883.949 C 1591.76 896.411 1600.33 907.169 1609.78 921.244 C 1672.59 1014.79 1649.07 1119.46 1606.18 1214.84 C 1602.46 1223.11 1581.91 1260.76 1582.06 1265.01 C 1586.29 1269.33 1593.86 1267.95 1599.49 1269.05 C 1607.01 1270.51 1614.45 1272.31 1621.7 1274.81 C 1632.3 1278.4 1642.23 1283.72 1651.1 1290.55 C 1714.92 1339.92 1707.57 1464.86 1660.08 1523.39 C 1609.05 1586.28 1535.76 1603.53 1459.91 1612.85 C 1452.67 1622.55 1443.21 1639.12 1435.55 1650.29 C 1415.77 1679.56 1392.99 1706.7 1367.59 1731.26 C 1269.9 1825.72 1145.78 1870.66 1010.68 1868.33 C 982.684 1867.62 954.795 1864.59 927.297 1859.29 C 812.592 1837.57 709.589 1775.16 637.241 1683.53 C 617.39 1658.88 605.752 1638.6 588.437 1613.2 C 482.852 1603.21 367.638 1557.91 353.312 1437.88 C 346.295 1379.08 355.741 1309.24 414.54 1280 C 432.661 1270.99 450.672 1269.43 470.443 1266.87 C 468.906 1251.96 462.799 1230.42 460.618 1212.91 C 455.678 1173.25 455.699 1138.92 456.194 1099.38 C 447.033 1098.26 437.773 1097.54 428.642 1096.29 C 414.524 1094.35 400.768 1089.03 389.856 1079.7 C 380.086 1071.33 373.563 1059.73 373.186 1046.63 C 373.055 1032.84 375.139 1018.22 378.287 1004.74 C 392.524 943.821 425.619 887.907 468.438 842.691 C 476.65 834.02 485.022 826.094 492.771 817.31 C 478.004 806.084 456.183 802.523 443.888 788.223 C 438.345 781.776 435.586 772.292 436.583 763.859 C 439.125 742.358 490.349 693.876 508.433 678.916 C 581.239 618.687 666.331 595.279 759.773 604.138 C 834.137 541.339 923.173 498.362 1018.6 479.203 z" class="svgShape colorffffff-2 selectable"/><path xmlns="http://www.w3.org/2000/svg" d="M 762.387 1007.4 C 808.128 1003.08 866.561 1029.25 911.767 1040.83 C 952.235 1051.2 982.632 1057.03 1025.14 1056.8 C 1065.66 1056.58 1097.13 1050.59 1136.2 1040.93 C 1187.18 1028.32 1243.24 999.789 1296 1008.8 C 1335.1 1015.47 1365.4 1040.47 1387.26 1072.38 C 1449.81 1163.67 1472.76 1330.03 1453.99 1436.28 C 1432.69 1554.81 1365.21 1660.04 1266.38 1728.86 C 1209.55 1767.68 1143.93 1791.71 1075.46 1798.77 C 956.817 1811.02 845.972 1782.45 753.013 1706.63 C 661.356 1631.31 603.008 1522.96 590.575 1404.97 C 578.972 1289.75 614.21 1022.02 762.387 1007.4 z" fill="#000000" class="svgShape color000000-3 selectable"/><path xmlns="http://www.w3.org/2000/svg" fill="#FFF" d="M 763.999 1017.37 C 801.798 1012.28 874.286 1042.56 913.707 1051.9 C 953.205 1061.26 980.654 1066.97 1022.25 1067.07 C 1058.93 1066.91 1095.44 1062.12 1130.92 1052.83 C 1174.04 1041.95 1251.84 1010.44 1291.42 1018.21 C 1436.17 1046.63 1462.67 1319.57 1445.12 1428.43 C 1425.53 1545.77 1359.87 1650.42 1262.76 1719.13 C 1209.8 1755.64 1148.92 1779.04 1085.15 1787.4 C 970.467 1802.47 859.759 1776.64 767.727 1705.56 C 680.788 1638.42 615.461 1527.42 602.227 1417.54 C 589.544 1312.24 610.542 1158.01 675.961 1070.12 C 698.11 1040.36 727.155 1021.98 763.999 1017.37 z" class="svgShape colorffffff-4 selectable"/><path xmlns="http://www.w3.org/2000/svg" d="M 720.186 1365.2 C 724.912 1364.9 730.898 1364.99 735.719 1364.96 L 1139.27 1364.98 L 1267.48 1364.94 C 1287.75 1364.94 1309.16 1364.63 1329.39 1365.35 C 1338.43 1367 1347.82 1371.5 1354.23 1378.12 C 1363.79 1388.02 1367.17 1401.85 1366.25 1415.35 C 1361.56 1483.96 1341.97 1551.53 1305.53 1610.12 C 1290.04 1635.02 1273.07 1654.19 1251.59 1673.84 C 1212.75 1706.73 1166.44 1729.57 1116.71 1740.37 C 1024.21 1761.29 912.924 1750.51 831.539 1699.39 C 742.278 1643.72 696.396 1541.95 684.595 1440.58 C 680.69 1407.03 677.081 1373.63 720.186 1365.2 z" fill="#000000" class="svgShape color000000-5 selectable"/><path xmlns="http://www.w3.org/2000/svg" fill="#FFF" d="M 720.77 1375.19 C 722.402 1375.11 724.035 1375.04 725.669 1375 C 767.622 1374.09 813.072 1374.91 855.184 1374.92 L 1105.23 1374.91 L 1253.52 1374.87 C 1277.77 1374.86 1302.68 1374.59 1326.93 1375.24 C 1333.73 1375.42 1341.64 1380.14 1346.37 1384.81 C 1353.9 1392.12 1357.07 1403.74 1356.29 1414.05 C 1349.22 1507.71 1317.86 1596.02 1249.25 1662.23 C 1216.29 1691.37 1177.25 1712.83 1134.98 1725.03 C 1044.5 1751.63 935.178 1745.19 851.863 1699.47 C 778.197 1659.05 731.929 1589.45 708.899 1510.17 C 701.929 1486.17 684.558 1412.35 696.924 1391.19 C 702.362 1381.88 710.792 1377.86 720.77 1375.19 z" class="svgShape colorffffff-6 selectable"/><path xmlns="http://www.w3.org/2000/svg" d="M 764.231 1442.36 C 787.915 1441.35 816.708 1442.1 840.705 1442.12 L 983.504 1442.19 L 1182.5 1442.19 C 1211.93 1442.18 1241.41 1442.1 1270.85 1441.95 C 1275.1 1441.93 1282.15 1442.13 1285.19 1445.26 C 1286.19 1461.57 1269.91 1510.78 1262.89 1527.14 C 1248.24 1561.2 1226.17 1591.57 1198.3 1616.02 C 1194.82 1619.03 1185.25 1628.76 1180.81 1626.46 C 1177.86 1621.59 1175.77 1613.06 1174.08 1607.33 C 1152.2 1538.81 1099.76 1504.96 1029.02 1502.71 C 962.209 1500.59 903.432 1530.12 878.712 1594.38 C 876.473 1600.21 869.297 1625.99 866.931 1628.26 C 864.961 1628.12 863.867 1627.61 862.291 1626.44 C 808.893 1586.54 777.166 1525.31 764.486 1460.82 C 763.291 1454.74 760.784 1447.66 764.231 1442.36 z" fill="#000000" class="svgShape color000000-7 selectable"/><path xmlns="http://www.w3.org/2000/svg" fill="#FFF" d="M 773.43 1451.99 L 1274.58 1452.02 C 1260.89 1520.64 1239.84 1565.79 1186.55 1613.24 C 1183.82 1603.94 1181.58 1597.35 1178.04 1588.32 C 1157.73 1541.89 1122.61 1509.63 1072.6 1498.16 C 979.402 1476.8 885.151 1514.41 862.045 1613.25 C 810.535 1568.69 785.586 1518.33 773.43 1451.99 z" class="svgShape colorffffff-8 selectable"/><path xmlns="http://www.w3.org/2000/svg" d="M 1011.05 1570.37 C 1075.01 1563.4 1110.07 1598.28 1118.68 1659.29 C 1096.51 1668.03 1061.64 1672.51 1037.43 1673.14 C 1001.06 1673.49 963.445 1671.92 928.885 1659.34 C 938.35 1608.57 956.428 1577.18 1011.05 1570.37 z" fill="#000000" class="svgShape color000000-9 selectable"/><path xmlns="http://www.w3.org/2000/svg" fill="#FFF" d="M 1012.64 1580.35 C 1065.56 1575.75 1098.77 1600.31 1107.72 1652.83 C 1085.37 1659.13 1061.17 1662.18 1037.99 1663.08 C 1000.38 1663.68 977.055 1662.17 940.305 1653.08 C 949.547 1609.92 967.449 1586.14 1012.64 1580.35 z" class="svgShape colorffffff-10 selectable"/><path xmlns="http://www.w3.org/2000/svg" d="M 1180.75 1111.4 C 1197.46 1108.69 1221.04 1112.95 1236.97 1118.17 C 1261.04 1126.05 1309.61 1154.88 1320.16 1177.82 C 1324.76 1187.73 1325.2 1199.06 1321.39 1209.3 C 1317.75 1219.1 1308.17 1230.8 1298.43 1234.47 C 1267.1 1246.29 1253.75 1228.33 1231.62 1211.47 C 1223.76 1205.48 1216.47 1202 1207.64 1198.63 C 1160.68 1185.66 1148.73 1231.65 1116.86 1237.54 C 1105.52 1239.72 1093.79 1237.17 1084.37 1230.49 C 1074.31 1223.31 1067.68 1212.28 1066.07 1200.03 C 1062.92 1175.68 1078.97 1163 1095.43 1149.28 C 1120.91 1128.03 1147.59 1114.85 1180.75 1111.4 z" fill="#000000" class="svgShape color000000-11 selectable"/><path xmlns="http://www.w3.org/2000/svg" fill="#FFF" d="M 1180.55 1121.36 C 1192.96 1119.83 1209.3 1120.88 1222.37 1124.46 C 1251.81 1132.53 1291.51 1154.51 1309.67 1179.65 C 1320.2 1194.23 1310.06 1217.5 1294.08 1224.84 C 1269.02 1236.35 1253.6 1213.88 1234.91 1201.26 C 1225.35 1194.74 1219.38 1191.44 1208.39 1187.76 C 1167.59 1178.54 1157.94 1199.19 1131.01 1219.56 C 1092.08 1249.01 1048.31 1193.19 1099.75 1158.77 C 1131.21 1137.72 1140.15 1126.54 1180.55 1121.36 z" class="svgShape colorffffff-12 selectable"/><path xmlns="http://www.w3.org/2000/svg" d="M 841.668 1111.39 C 855.753 1109.87 869.99 1110.6 883.844 1113.56 C 915.884 1120.48 957.045 1145.34 976.219 1172.42 C 1000.93 1207.33 955.746 1254.88 919.257 1232.64 C 898.844 1220.2 891.971 1204.46 866.863 1197.29 C 822.892 1188.68 810.716 1229.03 775.08 1237.65 C 739.382 1246.29 708.132 1196.48 733.698 1168.43 C 759.883 1139.69 802.335 1115.65 841.668 1111.39 z" fill="#000000" class="svgShape color000000-13 selectable"/><path xmlns="http://www.w3.org/2000/svg" fill="#FFF" d="M 843.506 1121.35 C 882.528 1116.45 915.564 1132.92 946.406 1156.93 C 967.983 1173.73 988.051 1198.69 957.285 1222.03 C 932.108 1241.13 910.376 1210.64 892.047 1197.62 C 883.409 1191.48 875.428 1188.4 864.232 1186.28 C 832.289 1182.55 813.232 1200.44 790.229 1219.48 C 770.976 1237.51 736.689 1224 735.308 1198.16 C 733.13 1157.37 812.37 1125.4 843.506 1121.35 z" class="svgShape colorffffff-14 selectable"/><path xmlns="http://www.w3.org/2000/svg" d="M 987.183 556.19 L 988.178 556.496 C 993.747 563.585 985.794 600.089 995.091 613.891 C 1007.45 634.998 1024.82 631.463 1045.75 626.752 C 1131.17 607.53 1220.66 602.446 1305.28 628.51 C 1380.86 651.791 1444.35 697.933 1495.98 757.264 C 1505.88 768.637 1521.43 785.192 1528.41 798.425 C 1508.13 813.384 1470.37 819.693 1461.82 842.429 C 1458.45 851.404 1459.81 864.076 1465.49 871.956 C 1472.06 881.056 1484.62 888.254 1493.79 895.425 C 1524.31 919.297 1548.25 943.91 1566.19 978.6 C 1591.78 1028.1 1584.37 1084.15 1567.78 1135.06 C 1562.07 1152.58 1531.53 1229.91 1519.01 1236.12 C 1517.7 1235.71 1516.37 1235.36 1516.01 1233.63 C 1497.33 1144.32 1469.6 1043.76 1394.55 983.675 C 1375.69 968.566 1354.32 956.901 1331.41 949.213 C 1238.44 918.643 1154.73 978.198 1061.24 988.595 C 974.081 999.085 908.393 969.032 828.243 947.61 C 679.687 907.906 582.946 1032.16 549.875 1160.48 C 547.793 1168.57 535.908 1222.69 534.054 1225.55 L 531.791 1225.94 C 527.955 1222.3 527.27 1210.06 526.373 1204.44 C 521.156 1174.43 520.861 1145.31 521.148 1114.98 C 520.301 1089.41 531.672 1068.54 516.117 1045.64 C 500.725 1022.97 451.662 1039.85 441.456 1027.65 C 440.663 1015.89 449.323 992.326 453.753 981.469 C 468.392 945.592 490.813 914.674 517.482 886.853 C 528.28 875.49 539.79 864.825 551.943 854.925 C 559.2 849.057 572.292 839.534 578.37 833.286 C 582.12 829.494 585.048 824.968 586.969 819.993 C 601.882 780.275 532.251 770.099 526.234 755.978 C 527.042 749.865 547.286 733.216 552.395 729.037 C 598.529 690.735 656.442 669.481 716.4 668.847 C 723.456 668.789 729.681 668.954 736.337 669.345 C 746.649 669.952 771.001 676.009 779.912 671.215 C 794.092 663.587 809.072 648.327 822.648 637.962 C 865.305 605.398 934.738 568.168 987.183 556.19 z" fill="#000000" class="svgShape color000000-15 selectable"/><path xmlns="http://www.w3.org/2000/svg" fill="#FFF" d="M 977.611 568.973 C 978.305 569.109 978.999 569.245 979.693 569.382 C 982.496 580.933 979.464 595.132 981.244 606.826 C 983.027 622.596 1002.78 640.553 1018.8 640.337 C 1041.16 639.724 1063.74 632.659 1086.07 629.017 C 1161.33 616.745 1236.26 616.4 1309.27 640.503 C 1394.82 668.744 1459.12 725.11 1514.39 794.643 C 1494.67 805.438 1464.22 814.637 1454.44 834.247 C 1447.31 848.806 1448.81 866.112 1458.32 879.235 C 1464.98 888.273 1477.7 895.695 1486.81 902.784 C 1520.57 929.067 1552.96 962.399 1566.05 1004.21 C 1587.67 1073.23 1553.84 1153.67 1522.24 1214.58 C 1521.58 1211.21 1520.88 1207.85 1520.15 1204.49 C 1501.08 1115.88 1462.04 1012.57 1382.3 962.282 C 1275.64 895.01 1196.22 950.499 1094.93 972.491 C 995.771 995.4 927.371 965.03 834.34 938.581 C 779.955 923.119 719.313 928.995 670.693 959.231 C 593.373 1007.32 553.757 1097.65 533.481 1183.13 C 530.504 1146.55 531.199 1111.72 533.996 1075.47 C 535.734 1052.93 524.188 1029.8 501.366 1024.76 C 487.743 1021.75 466.585 1022.56 452.078 1022.23 C 462.821 960.644 509.445 903.782 556.426 864.272 C 577.615 846.713 604.484 833.934 597.192 800.756 C 591.254 773.741 562.46 767.392 541.677 754.677 L 540.426 753.904 C 587.06 703.772 664.886 674.701 732.843 679.144 C 746.456 680.034 772.405 686.399 783.464 680.529 C 803.202 670.053 821.629 650.339 841.329 636.627 C 886.585 605.127 926.187 587.333 977.611 568.973 z" class="svgShape colorffffff-16 selectable"/><path xmlns="http://www.w3.org/2000/svg" d="M 460.02 1335.26 C 478.645 1333.72 504.664 1338.46 521.699 1345.85 C 522.25 1386.9 524.461 1427.17 533.512 1467.34 C 535.945 1478.13 552.962 1534.14 552.589 1537.6 C 547.538 1541.52 526.504 1534.28 520.018 1532.41 C 457.173 1509.93 414.401 1474.63 417.926 1402.03 C 419.437 1370.91 422.74 1341.62 460.02 1335.26 z" fill="#000000" class="svgShape color000000-17 selectable"/><path xmlns="http://www.w3.org/2000/svg" fill="#FFF" d="M 461.166 1345.18 C 479.757 1343.76 494.372 1347.68 511.914 1353.14 C 511.915 1418.89 519.388 1465.42 540.198 1527.67 C 531.966 1525.51 523.813 1523.06 515.752 1520.33 C 477.503 1506.01 439.886 1480.59 431.235 1437.96 C 426.717 1415.7 425.181 1380.61 437.198 1359.89 C 442.492 1350.76 451.412 1347.33 461.166 1345.18 z" class="svgShape colorffffff-18 selectable"/><path xmlns="http://www.w3.org/2000/svg" d="M 1569.9 1335.4 C 1613.88 1329.98 1628.25 1356.76 1630.41 1395.38 C 1634.09 1461.61 1606.82 1500.16 1546.67 1526.03 C 1537.41 1529.43 1504.42 1542 1496.8 1537.49 C 1495.42 1532.96 1502.9 1513.87 1504.63 1508.15 C 1509.47 1492.05 1513.57 1475.74 1516.9 1459.26 C 1524.76 1420.08 1526.88 1385.03 1526.9 1345.24 C 1541.39 1339.73 1554.57 1336.97 1569.9 1335.4 z" fill="#000000" class="svgShape color000000-19 selectable"/><path xmlns="http://www.w3.org/2000/svg" fill="#FFF" d="M 1570.85 1345.4 C 1605.16 1341.79 1616.81 1358.64 1619.91 1390.29 C 1625.88 1451.33 1602.56 1489.18 1547.26 1514.57 C 1533.88 1520.3 1523 1523.57 1509.01 1527.17 C 1529.35 1468.66 1536.58 1413.74 1536.94 1352.11 C 1549.47 1348.48 1557.9 1346.78 1570.85 1345.4 z" class="svgShape colorffffff-20 selectable"/><path xmlns="http://www.w3.org/2000/svg" d="M 295.385 1621.26 C 296.081 1621.22 296.778 1621.19 297.476 1621.17 C 318.418 1620.75 336.944 1634.89 340.647 1655.13 C 343.416 1670.26 342.376 1690.47 342.37 1706.03 C 359.589 1705.99 382.715 1704.13 399.016 1708.88 C 416.021 1713.84 427.44 1732.63 427.177 1750.23 C 426.97 1762.23 422.035 1773.67 413.443 1782.05 C 396.341 1798.48 365.6 1794.21 342.01 1794 C 342.514 1830.99 349.834 1869.24 302.752 1878.43 C 248.727 1879.71 254.702 1831.08 254.769 1793.99 C 237.759 1794.08 215.506 1795.73 199.23 1791.58 C 181.459 1787.06 169.681 1766.67 169.913 1748.71 C 170.039 1737.03 174.872 1725.89 183.318 1717.83 C 200.041 1701.87 231.589 1705.84 254.714 1705.92 C 254.558 1668.98 247.248 1629.23 295.385 1621.26 z" fill="#000000" class="svgShape color000000-21 selectable"/><path xmlns="http://www.w3.org/2000/svg" fill="#FFF" d="M 297.012 1631.23 C 343.174 1631.92 330.332 1684.24 332.55 1714.65 L 332.667 1716.16 C 353.99 1717.09 381.882 1712.42 401.142 1721.15 C 421.5 1734.62 419.279 1751.71 411.324 1770.13 C 400.314 1795.62 334.639 1775.45 332.442 1788.53 C 327.367 1818.74 347.148 1860.36 300.184 1868.71 C 255.113 1870.77 265.383 1813.35 264.74 1784.3 C 245.25 1783.14 204.061 1788.37 192.732 1776.92 C 162.541 1746.43 188.705 1710.29 228.567 1716.23 C 234.931 1717.17 258.725 1716.17 263.966 1715.9 C 268.704 1682.34 250.694 1639.46 297.012 1631.23 z" class="svgShape colorffffff-22 selectable"/><path xmlns="http://www.w3.org/2000/svg" d="M 682.132 213.409 C 732.703 216.178 726.474 262.87 726.241 298.568 C 750.145 298.674 781.671 294.206 798.724 311.328 C 806.894 319.667 811.366 330.942 811.135 342.614 C 810.935 354.495 806.06 365.819 797.567 374.129 C 780.756 390.318 749.244 386.089 725.955 386.025 C 726.275 424.826 733.635 463.607 682.98 470.889 C 631.989 467.308 638.289 422.95 638.25 385.996 C 615.56 386.207 583.821 390.219 567.371 374.303 C 558.799 365.86 553.916 354.369 553.789 342.338 C 553.645 330.579 558.252 319.26 566.567 310.945 C 583.197 294.454 614.704 298.554 638.158 298.46 C 637.858 260.572 631.528 218.91 682.132 213.409 z" fill="#000000" class="svgShape color000000-23 selectable"/><path xmlns="http://www.w3.org/2000/svg" fill="#FFF" d="M 675.337 224.278 L 676.682 224.137 C 687.932 223.037 695.958 224.922 704.855 232.343 C 722.899 247.393 714.067 279.857 715.837 300.481 C 716.122 303.806 717.405 308.103 720.405 308.609 C 741.525 312.173 773.257 301.813 790.651 317.573 C 797.004 323.329 801.157 333.415 801.145 342.894 C 801.217 351.654 797.703 360.063 791.42 366.168 C 776.435 380.921 739.382 375.867 716.726 376.22 C 713.437 407.685 727.569 447.922 689.278 459.845 C 678.137 461.922 666.887 459.158 658.662 451.055 C 642.391 434.621 650.714 406.388 649.06 385.342 C 647.98 371.604 635.744 376.065 625.527 375.866 C 609.417 375.551 587.42 379.629 574.461 367.541 C 561.69 355.514 559.957 331.275 573.26 319.022 C 590.308 303.319 624.589 309.301 647.75 308.641 C 649.838 275.667 637.408 237.63 675.337 224.278 z" class="svgShape colorffffff-24 selectable"/><path xmlns="http://www.w3.org/2000/svg" d="M 1532.4 170.277 C 1586 168.56 1580.13 218.641 1579.93 254.946 C 1603.63 254.967 1634.48 250.501 1651.6 267.327 C 1659.93 275.65 1664.64 286.928 1664.69 298.705 C 1664.77 318.395 1651.19 337.966 1631.95 341.276 C 1616.58 343.919 1595.52 342.836 1579.76 342.852 C 1580.07 378.661 1587 416.827 1542.14 426.988 C 1486.2 428.591 1492.52 381.668 1492.64 342.834 C 1470.22 342.329 1436.73 347.569 1421.72 331.396 C 1388.11 295.177 1418.52 248.362 1464.98 254.903 C 1470.7 255.708 1486.69 254.961 1492.83 254.982 C 1492.49 218.757 1484.88 177.752 1532.4 170.277 z" fill="#000000" class="svgShape color000000-25 selectable"/><path xmlns="http://www.w3.org/2000/svg" fill="#FFF" d="M 1533.96 180.253 C 1534.41 180.232 1534.85 180.2 1535.3 180.189 C 1543.87 179.977 1554.17 183.63 1560.23 189.786 C 1575.26 205.055 1569.05 234.54 1569.54 254.171 C 1569.61 256.98 1569.98 260.922 1571.96 263.153 C 1578.81 270.835 1626.62 256.848 1645.43 275.018 C 1651.8 281.172 1654.44 290.173 1654.55 298.846 C 1654.67 307.677 1651.93 316.299 1645.58 322.622 C 1629.98 338.166 1591.25 332.596 1570.15 333.033 C 1567.74 366.027 1581.48 407.227 1540.36 417.192 C 1490.32 417.648 1505 367.396 1502.42 334.623 L 1502.3 333.163 C 1484.15 332.081 1444.58 337.55 1429.7 325.268 C 1412.62 312.434 1414.02 280.632 1433.07 270.585 C 1449.89 261.71 1482.57 265.289 1502.13 264.843 C 1505.99 233.102 1489.59 186.885 1533.96 180.253 z" class="svgShape colorffffff-26 selectable"/><path xmlns="http://www.w3.org/2000/svg" d="M 1745.23 746.264 C 1799.21 743.929 1793.31 794.487 1793.12 830.826 C 1816.82 830.717 1848.03 826.348 1865.11 843.441 C 1873.48 851.882 1878.07 863.349 1877.85 875.232 C 1877.71 887.022 1872.89 898.272 1864.44 906.499 C 1847.69 922.675 1816.21 918.434 1792.98 918.248 C 1793.35 954.117 1800.35 993.848 1754.25 1002.79 C 1731.86 1004.22 1711.71 991.837 1707.38 969.681 C 1704.48 954.838 1705.78 933.711 1705.93 918.344 C 1683.09 918.255 1652.6 922.73 1635.51 907.649 C 1626.32 899.398 1620.99 887.681 1620.82 875.329 C 1620.55 863.525 1625.11 852.122 1633.44 843.757 C 1650.97 825.973 1681.41 830.539 1705.96 830.699 C 1705.64 795.381 1698.66 753.801 1745.23 746.264 z" fill="#000000" class="svgShape color000000-27 selectable"/><path xmlns="http://www.w3.org/2000/svg" fill="#FFF" d="M 1746.27 756.141 C 1754 755.838 1762.42 757.409 1768.94 761.791 C 1787.56 774.312 1783.31 801.969 1782.92 821.322 C 1782.82 826.03 1782.17 831.72 1783.38 836.306 C 1783.66 837.347 1784.38 838.939 1785.33 839.522 C 1796.39 846.307 1832.9 834.518 1851.41 845.665 C 1859.37 850.457 1865.33 858.689 1867.22 867.798 C 1869.04 876.591 1867.04 887.111 1861.77 894.425 C 1848.3 913.119 1818.82 908.43 1798.51 908.248 C 1795.19 908.219 1789.69 907.574 1786.58 908.572 C 1777.99 911.33 1788.48 961.866 1777.16 978.655 C 1771.41 987.179 1762.34 990.938 1752.66 992.975 C 1705.53 995.017 1716.64 940.052 1715.73 908.903 C 1697.86 907.45 1657.81 913.741 1642.51 900.13 C 1624.24 883.884 1627.87 851.585 1652.43 843.49 C 1667.3 838.588 1696.96 840.852 1715.35 840.415 C 1719 807.817 1702.91 765.175 1746.27 756.141 z" class="svgShape colorffffff-28 selectable"/></g></svg>